<svg width="12" height="14" viewBox="0 0 12 14" fill="none" xmlns="http://www.w3.org/2000/svg">
<path d="M3.65479 8.25C3.4777 8.25 3.32916 8.19 3.20916 8.07C3.08916 7.95 3.02937 7.80167 3.02979 7.625C3.02979 7.44792 3.08979 7.29938 3.20979 7.17938C3.32979 7.05938 3.47812 6.99958 3.65479 7C3.83187 7 3.98041 7.06 4.10041 7.18C4.22041 7.3 4.2802 7.44833 4.27979 7.625C4.27979 7.80208 4.21979 7.95063 4.09979 8.07063C3.97979 8.19063 3.83145 8.25042 3.65479 8.25ZM6.15479 8.25C5.9777 8.25 5.82916 8.19 5.70916 8.07C5.58916 7.95 5.52937 7.80167 5.52979 7.625C5.52979 7.44792 5.58979 7.29938 5.70979 7.17938C5.82979 7.05938 5.97812 6.99958 6.15479 7C6.33187 7 6.48041 7.06 6.60041 7.18C6.72041 7.3 6.7802 7.44833 6.77979 7.625C6.77979 7.80208 6.71979 7.95063 6.59979 8.07063C6.47979 8.19063 6.33145 8.25042 6.15479 8.25ZM8.65479 8.25C8.4777 8.25 8.32916 8.19 8.20916 8.07C8.08916 7.95 8.02937 7.80167 8.02979 7.625C8.02979 7.44792 8.08979 7.29938 8.20979 7.17938C8.32979 7.05938 8.47812 6.99958 8.65479 7C8.83187 7 8.98041 7.06 9.10041 7.18C9.22041 7.3 9.2802 7.44833 9.27979 7.625C9.27979 7.80208 9.21979 7.95063 9.09979 8.07063C8.97979 8.19063 8.83145 8.25042 8.65479 8.25ZM1.77979 13.25C1.43604 13.25 1.14166 13.1275 0.896661 12.8825C0.651661 12.6375 0.52937 12.3433 0.529786 12V3.25C0.529786 2.90625 0.652286 2.61188 0.897286 2.36688C1.14229 2.12188 1.43645 1.99958 1.77979 2H2.40479V0.75H3.65479V2H8.65479V0.75H9.90479V2H10.5298C10.8735 2 11.1679 2.1225 11.4129 2.3675C11.6579 2.6125 11.7802 2.90667 11.7798 3.25V12C11.7798 12.3438 11.6573 12.6381 11.4123 12.8831C11.1673 13.1281 10.8731 13.2504 10.5298 13.25H1.77979ZM1.77979 12H10.5298V5.75H1.77979V12Z" fill="#828282"/>
</svg>
