<svg width="28" height="33" viewBox="0 0 28 33" fill="none" xmlns="http://www.w3.org/2000/svg">
<path d="M11.2 6.58963H16.8C16.8 5.71579 16.505 4.87774 15.9799 4.25984C15.4548 3.64195 14.7426 3.29482 14 3.29482C13.2574 3.29482 12.5452 3.64195 12.0201 4.25984C11.495 4.87774 11.2 5.71579 11.2 6.58963ZM8.4 6.58963C8.4 4.84195 8.99 3.16585 10.0402 1.93006C11.0904 0.694263 12.5148 0 14 0C15.4852 0 16.9096 0.694263 17.9598 1.93006C19.01 3.16585 19.6 4.84195 19.6 6.58963H26.6C26.9713 6.58963 27.3274 6.7632 27.59 7.07215C27.8525 7.3811 28 7.80012 28 8.23704C28 8.67396 27.8525 9.09298 27.59 9.40193C27.3274 9.71088 26.9713 9.88445 26.6 9.88445H25.3652L24.1248 26.9186C24.0056 28.5635 23.366 30.0958 22.3326 31.2124C21.2992 32.3289 19.9473 32.9484 18.5444 32.9482H9.4556C8.05267 32.9484 6.70079 32.3289 5.66741 31.2124C4.63403 30.0958 3.99445 28.5635 3.8752 26.9186L2.6348 9.88445H1.4C1.0287 9.88445 0.672601 9.71088 0.41005 9.40193C0.1475 9.09298 0 8.67396 0 8.23704C0 7.80012 0.1475 7.3811 0.41005 7.07215C0.672601 6.7632 1.0287 6.58963 1.4 6.58963H8.4ZM18.2 16.4741C18.2 16.0372 18.0525 15.6181 17.7899 15.3092C17.5274 15.0002 17.1713 14.8267 16.8 14.8267C16.4287 14.8267 16.0726 15.0002 15.8101 15.3092C15.5475 15.6181 15.4 16.0372 15.4 16.4741V23.0637C15.4 23.5006 15.5475 23.9197 15.8101 24.2286C16.0726 24.5376 16.4287 24.7111 16.8 24.7111C17.1713 24.7111 17.5274 24.5376 17.7899 24.2286C18.0525 23.9197 18.2 23.5006 18.2 23.0637V16.4741ZM11.2 14.8267C11.5713 14.8267 11.9274 15.0002 12.1899 15.3092C12.4525 15.6181 12.6 16.0372 12.6 16.4741V23.0637C12.6 23.5006 12.4525 23.9197 12.1899 24.2286C11.9274 24.5376 11.5713 24.7111 11.2 24.7111C10.8287 24.7111 10.4726 24.5376 10.2101 24.2286C9.9475 23.9197 9.8 23.5006 9.8 23.0637V16.4741C9.8 16.0372 9.9475 15.6181 10.2101 15.3092C10.4726 15.0002 10.8287 14.8267 11.2 14.8267ZM6.664 26.6386C6.72365 27.4613 7.04364 28.2277 7.56062 28.786C8.07761 29.3443 8.75389 29.6539 9.4556 29.6533H18.5444C19.2456 29.653 19.9212 29.3431 20.4376 28.7849C20.954 28.2267 21.2736 27.4607 21.3332 26.6386L22.554 9.88445H5.446L6.6668 26.6386H6.664Z" fill="#EC4C4C"/>
</svg>
