<svg width="59" height="57" viewBox="0 0 59 57" fill="none" xmlns="http://www.w3.org/2000/svg">
<path d="M54.0837 26.3411C54.0837 32.64 51.4936 38.6809 46.8834 43.1348C42.2731 47.5888 36.0202 50.0911 29.5003 50.0911C26.272 50.0911 23.0753 49.4768 20.0927 48.2832C17.1101 47.0897 14.4001 45.3402 12.1173 43.1348C7.50701 38.6809 4.91699 32.64 4.91699 26.3411C4.91699 20.0422 7.50701 14.0013 12.1173 9.54728C16.7276 5.09329 22.9804 2.59106 29.5003 2.59106C32.7287 2.59106 35.9254 3.20538 38.908 4.39893C41.8905 5.59247 44.6006 7.34189 46.8834 9.54728C49.1661 11.7527 50.9769 14.3708 52.2124 17.2523C53.4478 20.1338 54.0837 23.2222 54.0837 26.3411ZM14.7503 21.5911L29.5003 35.8411L44.2503 21.5911L40.8087 18.2661L29.5003 29.1911L18.192 18.2661L14.7503 21.5911Z" fill="#009444"/>
</svg>
