<svg width="68" height="81" viewBox="0 0 68 81" fill="none" xmlns="http://www.w3.org/2000/svg">
<path d="M34.0014 46.0618C30.9448 46.0618 27.9568 45.2176 25.4153 43.6359C22.8739 42.0543 20.893 39.8062 19.7233 37.176C18.5536 34.5457 18.2475 31.6515 18.8438 28.8593C19.4402 26.0671 20.9121 23.5023 23.0734 21.4892C25.2348 19.4761 27.9885 18.1052 30.9864 17.5498C33.9843 16.9944 37.0917 17.2794 39.9156 18.3689C42.7396 19.4584 45.1532 21.3033 46.8514 23.6705C48.5495 26.0376 49.4559 28.8206 49.4559 31.6675C49.451 35.4837 47.8212 39.1423 44.924 41.8408C42.0268 44.5392 38.0987 46.0572 34.0014 46.0618ZM34.0014 23.0309C32.1674 23.0309 30.3747 23.5374 28.8498 24.4864C27.3249 25.4354 26.1364 26.7843 25.4345 28.3624C24.7327 29.9406 24.5491 31.6771 24.9069 33.3524C25.2647 35.0277 26.1478 36.5666 27.4446 37.7745C28.7414 38.9823 30.3937 39.8049 32.1924 40.1381C33.9911 40.4714 35.8556 40.3003 37.5499 39.6467C39.2443 38.993 40.6925 37.886 41.7114 36.4657C42.7303 35.0454 43.2741 33.3757 43.2741 31.6675C43.2717 29.3776 42.2939 27.1822 40.5555 25.563C38.8171 23.9439 36.4599 23.0332 34.0014 23.0309Z" fill="#040E47"/>
<path d="M34 80.6081L7.92512 51.9663C7.56281 51.5362 7.20425 51.1034 6.84948 50.6679C2.39543 45.2032 -0.01076 38.5284 3.61725e-05 31.6675C3.61725e-05 23.2687 3.58217 15.214 9.9584 9.27518C16.3346 3.33638 24.9826 0 34 0C43.0174 0 51.6654 3.33638 58.0416 9.27518C64.4178 15.214 68 23.2687 68 31.6675C68.0108 38.5253 65.6057 45.1971 61.1536 50.6593L61.1505 50.6679C61.1505 50.6679 60.2232 51.8022 60.0842 51.9548L34 80.6081ZM11.7826 47.1989C11.7888 47.1989 12.5058 48.0856 12.6697 48.2756L34 71.7066L55.3582 48.2439C55.4942 48.0856 56.2174 47.1932 56.2205 47.1903C59.859 42.7255 61.8253 37.2727 61.8182 31.6675C61.8182 24.7958 58.8873 18.2055 53.6704 13.3465C48.4535 8.48749 41.3778 5.75772 34 5.75772C26.6222 5.75772 19.5465 8.48749 14.3296 13.3465C9.11268 18.2055 6.18185 24.7958 6.18185 31.6675C6.17536 37.2762 8.14388 42.7321 11.7857 47.1989H11.7826Z" fill="#040E47"/>
</svg>
