<svg width="220" height="101" viewBox="0 0 220 101" fill="none" xmlns="http://www.w3.org/2000/svg">
<mask id="mask0_285_18" style="mask-type:luminance" maskUnits="userSpaceOnUse" x="0" y="0" width="220" height="101">
<path d="M0 0H219.967V101H0V0Z" fill="white"/>
</mask>
<g mask="url(#mask0_285_18)">
<path d="M97.4802 50.5105L85.2868 78.6786C85.071 79.2063 85.4618 79.7831 86.0352 79.7831H110.422C110.995 79.7831 111.386 79.2063 111.17 78.6786L98.9768 50.5105C98.704 49.8436 97.7532 49.8436 97.4802 50.5105Z" fill="#EA0A3B"/>
<path d="M93.5533 40.3897L80.2879 9.6142C79.6729 8.18764 77.6369 8.18764 77.0221 9.6142L47.5683 77.9414C47.195 78.8076 47.7744 79.8032 48.652 79.8032H52.9487C53.4127 79.8032 53.8348 79.5108 54.0322 79.0528L68.2809 45.9913L65.3643 44.3347L72.921 41.7371C73.2448 41.6257 73.5962 41.8071 73.6908 42.1342L76.086 50.4247L73.0561 48.7037C73.0415 48.7403 73.034 48.7794 73.0184 48.8155L60.4639 77.9414C60.0904 78.8076 60.6698 79.8032 61.5474 79.8032H64.4908C64.9548 79.8032 65.3771 79.5108 65.5745 79.0528L71.7356 64.9324L68.8597 63.2988L76.377 60.715C76.7008 60.6036 77.0523 60.7849 77.1468 61.112L79.5296 69.3595L76.5223 67.6514L72.0102 77.9416C71.6369 78.8077 72.2163 79.8032 73.0939 79.8032H76.0125C77.3742 79.8032 78.6323 78.8302 79.313 77.2506L93.5533 44.2088C94.079 42.9892 94.079 41.6093 93.5533 40.3897Z" fill="#009444"/>
<path d="M0 24.5845C0 14.7753 7.30681 7.22812 16.8095 7.22812C20.5925 7.28745 24.6376 9.01723 27.7193 11.8887C27.936 12.0905 27.9638 12.4243 27.7916 12.6646L23.8308 18.1919C23.6268 18.4766 23.2178 18.5282 22.9549 18.2957C21.1497 16.6999 18.8937 15.6801 16.8285 15.6801C12.1339 15.6801 8.21552 19.5668 8.21552 24.6462C8.21552 29.7872 12.3043 33.5712 16.6581 33.5712C19.0007 33.5712 21.1206 32.4653 22.9739 30.8079C23.2414 30.5686 23.6564 30.6083 23.8601 30.903L27.8039 36.6097C27.9698 36.8495 27.9397 37.1774 27.7265 37.3772C24.8554 40.066 21.1049 41.8998 16.6581 41.8998C8.0451 41.8998 0 34.9901 0 24.5845Z" fill="#040E47"/>
<path d="M56.7894 8.60305V40.5657C56.7894 40.8936 56.5219 41.1593 56.1918 41.1593H49.3039C48.9739 41.1593 48.7064 40.8936 48.7064 40.5657V29.2702C48.7064 28.9425 48.4388 28.6768 48.1089 28.6768H40.2366C39.9066 28.6768 39.639 28.9425 39.639 29.2702V40.5657C39.639 40.8936 39.3716 41.1593 39.0414 41.1593H32.1347C31.8047 41.1593 31.5371 40.8936 31.5371 40.5657V8.60305C31.5371 8.27531 31.8047 8.00947 32.1347 8.00947H39.0414C39.3716 8.00947 39.639 8.27531 39.639 8.60305V19.8575C39.639 20.1852 39.9066 20.451 40.2366 20.451H48.1089C48.4388 20.451 48.7064 20.1852 48.7064 19.8575V8.60305C48.7064 8.27531 48.9739 8.00947 49.3039 8.00947H56.1918C56.5219 8.00947 56.7894 8.27531 56.7894 8.60305Z" fill="#040E47"/>
<path d="M39.1858 47.6403V78.8682C39.1858 79.196 38.9184 79.4618 38.5883 79.4618H30.077C29.7471 79.4618 29.4795 79.196 29.4795 78.8682V68.4203C29.4795 67.8596 28.7689 67.6115 28.4158 68.0491L19.6382 78.9242H19.5699L10.7698 68.0457C10.4164 67.6088 9.70639 67.8571 9.70639 68.4174V78.8682C9.70639 79.196 9.43892 79.4618 9.10897 79.4618H0.597582C0.26763 79.4618 0 79.196 0 78.8682V47.6403C0 47.3126 0.26763 47.0468 0.597582 47.0468H3.61957C3.79793 47.0468 3.96689 47.1259 4.08033 47.2625L19.1331 65.3789C19.372 65.6665 19.8158 65.6665 20.0548 65.3788L35.1055 47.2626C35.2191 47.1259 35.3881 47.0468 35.5664 47.0468H38.5883C38.9184 47.0468 39.1858 47.3126 39.1858 47.6403Z" fill="#040E47"/>
<path d="M112.27 21.8031C112.27 22.1297 112.535 22.395 112.864 22.3967L116.47 22.4144C118.654 22.4352 120.646 21.1092 120.646 19.0582C120.646 16.9863 118.63 15.7018 116.47 15.7018H112.867C112.537 15.7018 112.27 15.9676 112.27 16.2953V21.8031ZM122.484 40.8723L113.403 28.1414C113.066 27.6694 112.318 27.906 112.318 28.4846V40.5291C112.318 40.857 112.05 41.1227 111.72 41.1227H102.642C102.312 41.1227 102.045 40.8575 102.044 40.5299L101.998 8.31978C101.998 7.99172 102.265 7.7254 102.595 7.7254H116.686C125.038 7.7254 131.015 12.5941 131.015 18.5816C131.015 22.4948 128.45 25.8043 124.994 27.4269C124.653 27.587 124.553 28.0218 124.783 28.3187L133.948 40.1675C134.25 40.5578 133.97 41.1227 133.474 41.1227H122.971C122.778 41.1227 122.596 41.0293 122.484 40.8723Z" fill="#040E47"/>
<path d="M164.832 16.0126H156.763C156.433 16.0126 156.165 16.2782 156.165 16.6061V40.5291C156.165 40.857 155.898 41.1227 155.568 41.1227H146.466C146.136 41.1227 145.869 40.857 145.869 40.5291V16.6061C145.869 16.2782 145.601 16.0126 145.271 16.0126H137.178C136.848 16.0126 136.58 15.7469 136.58 15.419V8.31897C136.58 7.99107 136.848 7.7254 137.178 7.7254H164.832C165.162 7.7254 165.43 7.99107 165.43 8.31897V15.419C165.43 15.7469 165.162 16.0126 164.832 16.0126Z" fill="#040E47"/>
<path d="M169.668 35.1468L175.053 30.5878C175.293 30.385 175.654 30.3969 175.867 30.6265C177.539 32.4248 180.343 33.4985 183.355 33.4985C185.539 33.4985 187.675 32.8148 187.675 31.4474C187.675 29.7278 183.715 28.2154 179.922 26.7652C175.026 24.9421 170.826 22.1659 170.826 17.1314C170.826 11.3511 177.186 7.22813 184.531 7.22813C190.159 7.22813 194.61 9.41253 196.324 12.4705C196.466 12.7246 196.416 13.0417 196.191 13.2284L191.098 17.4648C190.85 17.6707 190.49 17.6394 190.272 17.4029C188.946 15.9631 186.332 15.3289 184.651 15.3289C182.538 15.3289 181.026 16.2612 181.026 17.4007C181.026 18.9338 183.763 19.4311 187.939 20.9434C193.987 23.1396 197.995 26.3301 197.995 31.261C197.995 37.6214 191.131 41.5785 183.378 41.5785C177.268 41.5785 171.688 39.3409 169.536 35.8947C169.384 35.6518 169.448 35.3322 169.668 35.1468Z" fill="#040E47"/>
<path d="M138.36 49.5827L124.729 78.7708C124.435 79.4011 123.798 79.8044 123.099 79.8044H121.4C120.699 79.8044 120.063 79.4 119.769 78.7682L106.193 49.5801C105.643 48.3975 106.513 47.0468 107.824 47.0468H113.369C114.085 47.0468 114.733 47.4692 115.017 48.1219L120.56 60.8271C121.185 62.2599 123.23 62.2609 123.857 60.8289L129.417 48.1202C129.702 47.4684 130.349 47.0468 131.065 47.0468H136.73C138.043 47.0468 138.912 48.3997 138.36 49.5827Z" fill="#040E47"/>
<path d="M151.594 55.6432V58.981C151.594 59.3088 151.861 59.5744 152.191 59.5744H161.538C161.868 59.5744 162.136 59.8403 162.136 60.168V66.1592C162.136 66.487 161.868 66.7528 161.538 66.7528H152.191C151.861 66.7528 151.594 67.0185 151.594 67.3462V70.8045C151.594 71.1324 151.861 71.3981 152.191 71.3981H163.803C164.133 71.3981 164.4 71.6639 164.4 71.9917V78.8681C164.4 79.196 164.133 79.4617 163.803 79.4617H143.48C143.15 79.4617 142.883 79.196 142.883 78.8681V47.6402C142.883 47.3125 143.15 47.0468 143.48 47.0468H163.803C164.133 47.0468 164.4 47.3125 164.4 47.6402V54.456C164.4 54.7839 164.133 55.0496 163.803 55.0496H152.191C151.861 55.0496 151.594 55.3154 151.594 55.6432Z" fill="#040E47"/>
<path d="M197.997 47.6002V79.1895C197.997 79.5172 197.729 79.7831 197.399 79.7831H195.436C195.282 79.7831 195.135 79.7244 195.024 79.6193L179.137 64.5914C178.757 64.2315 178.128 64.4994 178.128 65.0212V78.8879C178.128 79.2156 177.86 79.4815 177.53 79.4815H169.912C169.582 79.4815 169.314 79.2156 169.314 78.8879V47.3182C169.314 46.9903 169.582 46.7247 169.912 46.7247H171.918C172.071 46.7247 172.219 46.7832 172.33 46.8883L188.154 61.8567C188.534 62.2165 189.163 61.9486 189.163 61.4267V47.6002C189.163 47.2725 189.431 47.0066 189.761 47.0066H197.399C197.729 47.0066 197.997 47.2725 197.997 47.6002Z" fill="#040E47"/>
</g>
<path d="M0.608 92.5965C0.608 93.9725 1.504 94.8285 2.92 94.8285C4.344 94.8285 5.24 93.9645 5.24 92.5965V88.8845H4.216V92.5325C4.216 93.3645 3.752 93.8365 2.92 93.8365C2.088 93.8365 1.632 93.3725 1.632 92.5325V88.8845H0.608V92.5965ZM7.50756 94.7325V90.5885L10.2596 94.7325H11.2676V88.8845H10.2596V93.0285L7.51556 88.8845H6.49956V94.7325H7.50756ZM13.5861 88.8845H12.5621V94.7325H16.0341V93.7885H13.5861V88.8845ZM21.9215 91.8045C21.9215 90.0205 20.7535 88.7805 19.0815 88.7805C17.4095 88.7805 16.2495 90.0285 16.2495 91.8045C16.2495 93.5885 17.4015 94.8285 19.0735 94.8285C20.7535 94.8285 21.9215 93.5805 21.9215 91.8045ZM20.8415 91.8045C20.8415 93.0365 20.1535 93.8445 19.0815 93.8445C18.0095 93.8445 17.3215 93.0525 17.3215 91.8045C17.3215 90.5565 18.0095 89.7645 19.0815 89.7645C20.1535 89.7645 20.8415 90.5565 20.8415 91.8045ZM25.3466 94.8285C26.7306 94.8285 27.8026 94.0125 28.0266 92.7805H26.9626C26.7706 93.4285 26.1626 93.8445 25.3706 93.8445C24.2986 93.8445 23.6106 93.0445 23.6106 91.8045C23.6106 90.5565 24.2906 89.7725 25.3706 89.7725C26.1466 89.7725 26.7306 90.1725 26.9306 90.8525H28.0106C27.8106 89.5965 26.7786 88.7885 25.3946 88.7885C23.6826 88.7885 22.5386 89.9965 22.5386 91.8125C22.5386 93.6445 23.6426 94.8285 25.3466 94.8285ZM29.9689 88.8845H28.9449V94.7325H29.9689V93.4845L30.9369 92.2445L32.3849 94.7325H33.5689L31.6089 91.3805L33.5449 88.8845H32.3369L29.9689 91.9565V88.8845ZM35.9798 89.8285H37.6918V94.7325H38.7158V89.8285H40.4278V88.8845H35.9798V89.8285ZM42.2345 94.7325V92.2525H44.8265V94.7325H45.8505V88.8845H44.8265V91.3005H42.2345V88.8845H41.2105V94.7325H42.2345ZM50.78 94.7325V93.7885H48.172V92.2365H50.508V91.3325H48.172V89.8285H50.78V88.8845H47.148V94.7325H50.78ZM56.3584 92.7165C57.5264 92.7165 58.2944 91.9245 58.2944 90.7965C58.2944 89.6525 57.5344 88.8845 56.3584 88.8845H54.0464V94.7325H55.0704V92.7165H56.3584ZM56.1584 89.7965C56.8384 89.7965 57.2224 90.1485 57.2224 90.7885C57.2224 91.4285 56.8464 91.8045 56.1424 91.8045H55.0704V89.7965H56.1584ZM64.4918 91.8045C64.4918 90.0205 63.3238 88.7805 61.6518 88.7805C59.9798 88.7805 58.8198 90.0285 58.8198 91.8045C58.8198 93.5885 59.9718 94.8285 61.6438 94.8285C63.3238 94.8285 64.4918 93.5805 64.4918 91.8045ZM63.4118 91.8045C63.4118 93.0365 62.7238 93.8445 61.6518 93.8445C60.5798 93.8445 59.8918 93.0525 59.8918 91.8045C59.8918 90.5565 60.5798 89.7645 61.6518 89.7645C62.7238 89.7645 63.4118 90.5565 63.4118 91.8045ZM66.4421 94.7325H67.4501L68.7221 90.4765L69.9701 94.7325H70.9621L72.7381 88.8845H71.6981L70.7541 91.9805C70.6661 92.2765 70.5861 92.5885 70.4741 93.1325C70.3781 92.6365 70.2901 92.3005 70.1941 91.9725L69.2901 88.8845H68.1621L67.2421 91.9725C67.1381 92.3085 67.0501 92.6125 66.9541 93.1325C66.8661 92.6205 66.7781 92.2925 66.6901 91.9725L65.7621 88.8845H64.6981L66.4421 94.7325ZM77.1394 94.7325V93.7885H74.5314V92.2365H76.8674V91.3325H74.5314V89.8285H77.1394V88.8845H73.5074V94.7325H77.1394ZM79.2736 94.7325V92.5485H80.5296L81.5216 94.7325H82.6416L81.5296 92.3325C82.2176 92.0525 82.5856 91.4925 82.5856 90.7085C82.5856 89.5565 81.8096 88.8845 80.4816 88.8845H78.2496V94.7325H79.2736ZM79.2736 89.7965H80.4816C81.1296 89.7965 81.5136 90.1245 81.5136 90.7085C81.5136 91.3005 81.1296 91.6445 80.4816 91.6445H79.2736V89.7965ZM91.1012 91.8045C91.1012 90.0205 89.9332 88.7805 88.2612 88.7805C86.5892 88.7805 85.4292 90.0285 85.4292 91.8045C85.4292 93.5885 86.5812 94.8285 88.2532 94.8285C89.9332 94.8285 91.1012 93.5805 91.1012 91.8045ZM90.0212 91.8045C90.0212 93.0365 89.3332 93.8445 88.2612 93.8445C87.1892 93.8445 86.5012 93.0525 86.5012 91.8045C86.5012 90.5565 87.1892 89.7645 88.2612 89.7645C89.3332 89.7645 90.0212 90.5565 90.0212 91.8045ZM95.2543 92.3405V91.4205H93.0783V89.8285H95.6703V88.8845H92.0543V94.7325H93.0783V92.3405H95.2543ZM100.854 94.7325C102.55 94.7325 103.718 93.5405 103.718 91.8205C103.718 90.0765 102.526 88.8845 100.798 88.8845H98.7496V94.7325H100.854ZM100.702 89.8285C101.91 89.8285 102.638 90.5805 102.638 91.8205C102.638 93.0365 101.926 93.7885 100.758 93.7885H99.7736V89.8285H100.702ZM104.886 94.7325L105.358 93.3805H107.542L108.014 94.7325H109.094L106.982 88.8845H105.934L103.822 94.7325H104.886ZM106.326 90.6285C106.382 90.4685 106.43 90.2925 106.454 90.1805C106.47 90.3005 106.526 90.4765 106.574 90.6285L107.246 92.5165H105.662L106.326 90.6285ZM108.792 89.8285H110.504V94.7325H111.528V89.8285H113.24V88.8845H108.792V89.8285ZM114.004 94.7325L114.476 93.3805H116.66L117.132 94.7325H118.212L116.1 88.8845H115.052L112.94 94.7325H114.004ZM115.444 90.6285C115.5 90.4685 115.548 90.2925 115.572 90.1805C115.588 90.3005 115.644 90.4765 115.692 90.6285L116.364 92.5165H114.78L115.444 90.6285ZM122.741 94.7325H123.797L125.973 88.8845H124.909L123.645 92.2525C123.533 92.5485 123.413 92.9085 123.269 93.4205C123.141 92.9485 123.029 92.6045 122.901 92.2525L121.621 88.8845H120.533L122.741 94.7325ZM127.047 89.9885C127.367 89.9885 127.631 89.7245 127.631 89.3965C127.631 89.0685 127.367 88.8125 127.047 88.8125C126.711 88.8125 126.447 89.0685 126.447 89.3965C126.447 89.7245 126.711 89.9885 127.047 89.9885ZM126.559 94.7325H127.535V90.7805H126.559V94.7325ZM128.351 90.5165C128.351 91.4125 128.871 91.9805 129.863 92.1965L130.791 92.4045C131.271 92.5085 131.471 92.7405 131.471 93.1325C131.471 93.6205 131.039 93.9165 130.359 93.9165C129.703 93.9165 129.303 93.6205 129.295 93.1245H128.271C128.295 94.1725 129.111 94.8365 130.359 94.8365C131.647 94.8365 132.495 94.1325 132.495 93.0445C132.495 92.1725 132.007 91.6605 131.007 91.4445L130.087 91.2445C129.599 91.1325 129.375 90.9005 129.375 90.4845C129.375 89.9965 129.783 89.6925 130.415 89.6925C130.991 89.6925 131.351 89.9885 131.375 90.4925H132.399C132.367 89.4365 131.615 88.7805 130.431 88.7805C129.199 88.7805 128.351 89.4925 128.351 90.5165ZM133.381 92.5965C133.381 93.9725 134.277 94.8285 135.693 94.8285C137.117 94.8285 138.013 93.9645 138.013 92.5965V88.8845H136.989V92.5325C136.989 93.3645 136.525 93.8365 135.693 93.8365C134.861 93.8365 134.405 93.3725 134.405 92.5325V88.8845H133.381V92.5965ZM139.535 94.7325L140.007 93.3805H142.191L142.663 94.7325H143.743L141.631 88.8845H140.583L138.471 94.7325H139.535ZM140.975 90.6285C141.031 90.4685 141.079 90.2925 141.103 90.1805C141.119 90.3005 141.175 90.4765 141.223 90.6285L141.895 92.5165H140.311L140.975 90.6285ZM145.5 88.8845H144.476V94.7325H147.948V93.7885H145.5V88.8845ZM149.125 89.9885C149.445 89.9885 149.709 89.7245 149.709 89.3965C149.709 89.0685 149.445 88.8125 149.125 88.8125C148.789 88.8125 148.525 89.0685 148.525 89.3965C148.525 89.7245 148.789 89.9885 149.125 89.9885ZM148.637 94.7325H149.613V90.7805H148.637V94.7325ZM154.573 94.7325V93.7885H151.613L154.525 89.7965V88.8845H150.429V89.8285H153.253L150.365 93.7805V94.7325H154.573ZM155.972 94.7325L156.444 93.3805H158.628L159.1 94.7325H160.18L158.068 88.8845H157.02L154.908 94.7325H155.972ZM157.412 90.6285C157.468 90.4685 157.516 90.2925 157.54 90.1805C157.556 90.3005 157.612 90.4765 157.66 90.6285L158.332 92.5165H156.748L157.412 90.6285ZM159.878 89.8285H161.59V94.7325H162.614V89.8285H164.326V88.8845H159.878V89.8285ZM165.453 89.9885C165.773 89.9885 166.037 89.7245 166.037 89.3965C166.037 89.0685 165.773 88.8125 165.453 88.8125C165.117 88.8125 164.853 89.0685 164.853 89.3965C164.853 89.7245 165.117 89.9885 165.453 89.9885ZM164.965 94.7325H165.941V90.7805H164.965V94.7325ZM172.429 91.8045C172.429 90.0205 171.261 88.7805 169.589 88.7805C167.917 88.7805 166.757 90.0285 166.757 91.8045C166.757 93.5885 167.909 94.8285 169.581 94.8285C171.261 94.8285 172.429 93.5805 172.429 91.8045ZM171.349 91.8045C171.349 93.0365 170.661 93.8445 169.589 93.8445C168.517 93.8445 167.829 93.0525 167.829 91.8045C167.829 90.5565 168.517 89.7645 169.589 89.7645C170.661 89.7645 171.349 90.5565 171.349 91.8045ZM174.39 94.7325V90.5885L177.142 94.7325H178.15V88.8845H177.142V93.0285L174.398 88.8845H173.382V94.7325H174.39Z" fill="#2D2D2D"/>
</svg>
