<svg width="213" height="105" viewBox="0 0 213 105" fill="none" xmlns="http://www.w3.org/2000/svg">
<mask id="mask0_173_1751" style="mask-type:luminance" maskUnits="userSpaceOnUse" x="0" y="0" width="213" height="105">
<path d="M0 -1.78814e-06H212.184V105H0V-1.78814e-06Z" fill="white"/>
</mask>
<g mask="url(#mask0_173_1751)">
<path d="M94.032 52.5105L82.27 81.7942C82.0618 82.3427 82.4388 82.9424 82.9919 82.9424H106.516C107.069 82.9424 107.446 82.3427 107.238 81.7942L95.4756 52.5105C95.2125 51.8172 94.2954 51.8172 94.032 52.5105Z" fill="#EA0A3B"/>
<path d="M90.2415 41.9899L77.4454 9.99557C76.8523 8.51252 74.8883 8.51252 74.2952 9.99557L45.8836 81.0288C45.5235 81.9293 46.0824 82.9644 46.9289 82.9644H51.0735C51.5211 82.9644 51.9283 82.6603 52.1187 82.1842L65.8633 47.8133L63.0499 46.0911L70.3392 43.3907C70.6516 43.2749 70.9905 43.4634 71.0818 43.8035L73.3922 52.4224L70.4695 50.6331C70.4554 50.6712 70.4482 50.7119 70.4332 50.7494L58.3228 81.0288C57.9626 81.9293 58.5215 82.9644 59.368 82.9644H62.2073C62.6549 82.9644 63.0622 82.6603 63.2526 82.1842L69.1958 67.5046L66.4216 65.8063L73.6729 63.1201C73.9853 63.0043 74.3244 63.1929 74.4155 63.5329L76.714 72.1071L73.813 70.3312L69.4607 81.029C69.1006 81.9295 69.6595 82.9644 70.506 82.9644H73.3213C74.6348 82.9644 75.8484 81.9528 76.505 80.3107L90.2415 45.9603C90.7486 44.6924 90.7486 43.2578 90.2415 41.9899Z" fill="#009444"/>
<path d="M0 25.5585C0 15.3609 7.04828 7.51478 16.2147 7.51478C19.8639 7.57646 23.7659 9.37475 26.7386 12.36C26.9476 12.5698 26.9743 12.9167 26.8082 13.1666L22.9876 18.9127C22.7909 19.2087 22.3963 19.2623 22.1427 19.0207C20.4013 17.3617 18.2252 16.3014 16.2331 16.3014C11.7045 16.3014 7.92483 20.3422 7.92483 25.6227C7.92483 30.9673 11.8689 34.9011 16.0687 34.9011C18.3284 34.9011 20.3733 33.7514 22.161 32.0284C22.419 31.7797 22.8193 31.8209 23.0158 32.1273L26.8201 38.0599C26.9801 38.3093 26.9512 38.6502 26.7454 38.8579C23.976 41.6532 20.3581 43.5596 16.0687 43.5596C7.76045 43.5596 0 36.3763 0 25.5585Z" fill="white"/>
<path d="M54.7797 8.9437V42.1722C54.7797 42.5131 54.5217 42.7893 54.2032 42.7893H47.559C47.2407 42.7893 46.9827 42.5131 46.9827 42.1722V30.4294C46.9827 30.0886 46.7246 29.8124 46.4063 29.8124H38.8126C38.4943 29.8124 38.2361 30.0886 38.2361 30.4294V42.1722C38.2361 42.5131 37.9781 42.7893 37.6597 42.7893H30.9973C30.6791 42.7893 30.4209 42.5131 30.4209 42.1722V8.9437C30.4209 8.60298 30.6791 8.32661 30.9973 8.32661H37.6597C37.9781 8.32661 38.2361 8.60298 38.2361 8.9437V20.6438C38.2361 20.9845 38.4943 21.2609 38.8126 21.2609H46.4063C46.7246 21.2609 46.9827 20.9845 46.9827 20.6438V8.9437C46.9827 8.60298 47.2407 8.32661 47.559 8.32661H54.2032C54.5217 8.32661 54.7797 8.60298 54.7797 8.9437Z" fill="white"/>
<path d="M37.7993 49.5267V81.9913C37.7993 82.332 37.5413 82.6084 37.2229 82.6084H29.0128C28.6946 82.6084 28.4364 82.332 28.4364 81.9913V71.1297C28.4364 70.5468 27.751 70.2888 27.4103 70.7437L18.9434 82.0495H18.8774L10.3887 70.7402C10.0479 70.286 9.36295 70.5441 9.36295 71.1266V81.9913C9.36295 82.332 9.10494 82.6084 8.78667 82.6084H0.576438C0.258161 82.6084 0 82.332 0 81.9913V49.5267C0 49.186 0.258161 48.9096 0.576438 48.9096H3.4915C3.66355 48.9096 3.82653 48.9919 3.93596 49.1338L18.4562 67.9678C18.6866 68.2668 19.1146 68.2668 19.3452 67.9676L33.8634 49.134C33.973 48.9919 34.136 48.9096 34.308 48.9096H37.2229C37.5413 48.9096 37.7993 49.186 37.7993 49.5267Z" fill="white"/>
<path d="M108.299 22.6667C108.299 23.0063 108.555 23.2822 108.872 23.2838L112.351 23.3023C114.457 23.3239 116.379 21.9454 116.379 19.8131C116.379 17.6592 114.434 16.3238 112.351 16.3238H108.875C108.557 16.3238 108.299 16.6001 108.299 16.9409V22.6667ZM118.152 42.4912L109.392 29.2561C109.067 28.7653 108.345 29.0114 108.345 29.6129V42.1344C108.345 42.4753 108.087 42.7515 107.769 42.7515H99.0117C98.6936 42.7515 98.4357 42.4758 98.4352 42.1352L98.3906 8.64945C98.3902 8.3084 98.6483 8.03153 98.9669 8.03153H112.559C120.616 8.03153 126.381 13.0931 126.381 19.3177C126.381 23.3859 123.907 26.8264 120.573 28.5133C120.244 28.6797 120.148 29.1317 120.369 29.4404L129.21 41.7585C129.502 42.1642 129.231 42.7515 128.753 42.7515H118.622C118.435 42.7515 118.26 42.6544 118.152 42.4912Z" fill="white"/>
<path d="M159.001 16.6469H151.217C150.898 16.6469 150.64 16.9231 150.64 17.264V42.1344C150.64 42.4753 150.382 42.7515 150.064 42.7515H141.284C140.966 42.7515 140.708 42.4753 140.708 42.1344V17.264C140.708 16.9231 140.45 16.6469 140.132 16.6469H132.324C132.006 16.6469 131.748 16.3707 131.748 16.0298V8.64861C131.748 8.30773 132.006 8.03153 132.324 8.03153H159.001C159.319 8.03153 159.577 8.30773 159.577 8.64861V16.0298C159.577 16.3707 159.319 16.6469 159.001 16.6469Z" fill="white"/>
<path d="M163.666 36.5392L168.861 31.7996C169.092 31.5888 169.44 31.6012 169.646 31.8399C171.259 33.7094 173.964 34.8256 176.869 34.8256C178.975 34.8256 181.036 34.1148 181.036 32.6933C181.036 30.9055 177.216 29.3333 173.558 27.8256C168.835 25.9303 164.783 23.0442 164.783 17.8103C164.783 11.8011 170.918 7.51482 178.003 7.51482C183.433 7.51482 187.726 9.78573 189.379 12.9648C189.516 13.229 189.468 13.5586 189.251 13.7527L184.338 18.1569C184.099 18.3709 183.751 18.3384 183.541 18.0926C182.262 16.5958 179.74 15.9365 178.119 15.9365C176.081 15.9365 174.623 16.9057 174.623 18.0902C174.623 19.684 177.262 20.2011 181.291 21.7733C187.125 24.0564 190.991 27.3733 190.991 32.4995C190.991 39.1118 184.37 43.2256 176.892 43.2256C170.997 43.2256 165.615 40.8994 163.539 37.3167C163.392 37.0641 163.454 36.732 163.666 36.5392Z" fill="white"/>
<path d="M133.465 51.5464L120.316 81.8905C120.032 82.5458 119.419 82.9651 118.744 82.9651H117.105C116.429 82.9651 115.815 82.5446 115.532 81.8878L102.436 51.5437C101.906 50.3143 102.745 48.9102 104.01 48.9102H109.358C110.049 48.9102 110.673 49.3493 110.948 50.0278L116.295 63.2362C116.898 64.7257 118.87 64.7268 119.475 63.238L124.838 50.026C125.113 49.3484 125.738 48.9102 126.428 48.9102H131.893C133.159 48.9102 133.998 50.3166 133.465 51.5464Z" fill="white"/>
<path d="M146.227 57.8464V61.3164C146.227 61.6571 146.485 61.9333 146.803 61.9333H155.82C156.138 61.9333 156.396 62.2097 156.396 62.5504V68.7789C156.396 69.1196 156.138 69.396 155.82 69.396H146.803C146.485 69.396 146.227 69.6722 146.227 70.0129V73.6081C146.227 73.949 146.485 74.2252 146.803 74.2252H158.004C158.322 74.2252 158.58 74.5016 158.58 74.8423V81.9911C158.58 82.332 158.322 82.6082 158.004 82.6082H138.401C138.082 82.6082 137.824 82.332 137.824 81.9911V49.5264C137.824 49.1857 138.082 48.9095 138.401 48.9095H158.004C158.322 48.9095 158.58 49.1857 158.58 49.5264V56.6122C158.58 56.9531 158.322 57.2293 158.004 57.2293H146.803C146.485 57.2293 146.227 57.5056 146.227 57.8464Z" fill="white"/>
<path d="M190.99 49.4849V82.3253C190.99 82.666 190.732 82.9424 190.413 82.9424H188.519C188.371 82.9424 188.229 82.8814 188.122 82.7721L172.798 67.1491C172.431 66.7748 171.824 67.0534 171.824 67.5959V82.0117C171.824 82.3525 171.566 82.6288 171.247 82.6288H163.899C163.58 82.6288 163.322 82.3525 163.322 82.0117V49.1918C163.322 48.8509 163.58 48.5747 163.899 48.5747H165.833C165.981 48.5747 166.124 48.6356 166.231 48.7448L181.495 64.306C181.862 64.6801 182.469 64.4015 182.469 63.859V49.4849C182.469 49.1442 182.727 48.8678 183.045 48.8678H190.413C190.732 48.8678 190.99 49.1442 190.99 49.4849Z" fill="white"/>
</g>
<path d="M0.608 95.9919C0.608 97.3679 1.504 98.2239 2.92 98.2239C4.344 98.2239 5.24 97.3599 5.24 95.9919V92.2799H4.216V95.9279C4.216 96.7599 3.752 97.2319 2.92 97.2319C2.088 97.2319 1.632 96.7679 1.632 95.9279V92.2799H0.608V95.9919ZM7.50756 98.1279V93.9839L10.2596 98.1279H11.2676V92.2799H10.2596V96.4239L7.51556 92.2799H6.49956V98.1279H7.50756ZM13.5861 92.2799H12.5621V98.1279H16.0341V97.1839H13.5861V92.2799ZM21.9215 95.1999C21.9215 93.4159 20.7535 92.1759 19.0815 92.1759C17.4095 92.1759 16.2495 93.4239 16.2495 95.1999C16.2495 96.9839 17.4015 98.2239 19.0735 98.2239C20.7535 98.2239 21.9215 96.9759 21.9215 95.1999ZM20.8415 95.1999C20.8415 96.4319 20.1535 97.2399 19.0815 97.2399C18.0095 97.2399 17.3215 96.4479 17.3215 95.1999C17.3215 93.9519 18.0095 93.1599 19.0815 93.1599C20.1535 93.1599 20.8415 93.9519 20.8415 95.1999ZM25.3466 98.2239C26.7306 98.2239 27.8026 97.4079 28.0266 96.1759H26.9626C26.7706 96.8239 26.1626 97.2399 25.3706 97.2399C24.2986 97.2399 23.6106 96.4399 23.6106 95.1999C23.6106 93.9519 24.2906 93.1679 25.3706 93.1679C26.1466 93.1679 26.7306 93.5679 26.9306 94.2479H28.0106C27.8106 92.9919 26.7786 92.1839 25.3946 92.1839C23.6826 92.1839 22.5386 93.3919 22.5386 95.2079C22.5386 97.0399 23.6426 98.2239 25.3466 98.2239ZM29.9689 92.2799H28.9449V98.1279H29.9689V96.8799L30.9369 95.6399L32.3849 98.1279H33.5689L31.6089 94.7759L33.5449 92.2799H32.3369L29.9689 95.3519V92.2799ZM35.9798 93.2239H37.6918V98.1279H38.7158V93.2239H40.4278V92.2799H35.9798V93.2239ZM42.2345 98.1279V95.6479H44.8265V98.1279H45.8505V92.2799H44.8265V94.6959H42.2345V92.2799H41.2105V98.1279H42.2345ZM50.78 98.1279V97.1839H48.172V95.6319H50.508V94.7279H48.172V93.2239H50.78V92.2799H47.148V98.1279H50.78ZM56.3584 96.1119C57.5264 96.1119 58.2944 95.3199 58.2944 94.1919C58.2944 93.0479 57.5344 92.2799 56.3584 92.2799H54.0464V98.1279H55.0704V96.1119H56.3584ZM56.1584 93.1919C56.8384 93.1919 57.2224 93.5439 57.2224 94.1839C57.2224 94.8239 56.8464 95.1999 56.1424 95.1999H55.0704V93.1919H56.1584ZM64.4918 95.1999C64.4918 93.4159 63.3238 92.1759 61.6518 92.1759C59.9798 92.1759 58.8198 93.4239 58.8198 95.1999C58.8198 96.9839 59.9718 98.2239 61.6438 98.2239C63.3238 98.2239 64.4918 96.9759 64.4918 95.1999ZM63.4118 95.1999C63.4118 96.4319 62.7238 97.2399 61.6518 97.2399C60.5798 97.2399 59.8918 96.4479 59.8918 95.1999C59.8918 93.9519 60.5798 93.1599 61.6518 93.1599C62.7238 93.1599 63.4118 93.9519 63.4118 95.1999ZM66.4421 98.1279H67.4501L68.7221 93.8719L69.9701 98.1279H70.9621L72.7381 92.2799H71.6981L70.7541 95.3759C70.6661 95.6719 70.5861 95.9839 70.4741 96.5279C70.3781 96.0319 70.2901 95.6959 70.1941 95.3679L69.2901 92.2799H68.1621L67.2421 95.3679C67.1381 95.7039 67.0501 96.0079 66.9541 96.5279C66.8661 96.0159 66.7781 95.6879 66.6901 95.3679L65.7621 92.2799H64.6981L66.4421 98.1279ZM77.1394 98.1279V97.1839H74.5314V95.6319H76.8674V94.7279H74.5314V93.2239H77.1394V92.2799H73.5074V98.1279H77.1394ZM79.2736 98.1279V95.9439H80.5296L81.5216 98.1279H82.6416L81.5296 95.7279C82.2176 95.4479 82.5856 94.8879 82.5856 94.1039C82.5856 92.9519 81.8096 92.2799 80.4816 92.2799H78.2496V98.1279H79.2736ZM79.2736 93.1919H80.4816C81.1296 93.1919 81.5136 93.5199 81.5136 94.1039C81.5136 94.6959 81.1296 95.0399 80.4816 95.0399H79.2736V93.1919ZM91.1012 95.1999C91.1012 93.4159 89.9332 92.1759 88.2612 92.1759C86.5892 92.1759 85.4292 93.4239 85.4292 95.1999C85.4292 96.9839 86.5812 98.2239 88.2532 98.2239C89.9332 98.2239 91.1012 96.9759 91.1012 95.1999ZM90.0212 95.1999C90.0212 96.4319 89.3332 97.2399 88.2612 97.2399C87.1892 97.2399 86.5012 96.4479 86.5012 95.1999C86.5012 93.9519 87.1892 93.1599 88.2612 93.1599C89.3332 93.1599 90.0212 93.9519 90.0212 95.1999ZM95.2543 95.7359V94.8159H93.0783V93.2239H95.6703V92.2799H92.0543V98.1279H93.0783V95.7359H95.2543ZM100.854 98.1279C102.55 98.1279 103.718 96.9359 103.718 95.2159C103.718 93.4719 102.526 92.2799 100.798 92.2799H98.7496V98.1279H100.854ZM100.702 93.2239C101.91 93.2239 102.638 93.9759 102.638 95.2159C102.638 96.4319 101.926 97.1839 100.758 97.1839H99.7736V93.2239H100.702ZM104.886 98.1279L105.358 96.7759H107.542L108.014 98.1279H109.094L106.982 92.2799H105.934L103.822 98.1279H104.886ZM106.326 94.0239C106.382 93.8639 106.43 93.6879 106.454 93.5759C106.47 93.6959 106.526 93.8719 106.574 94.0239L107.246 95.9119H105.662L106.326 94.0239ZM108.792 93.2239H110.504V98.1279H111.528V93.2239H113.24V92.2799H108.792V93.2239ZM114.004 98.1279L114.476 96.7759H116.66L117.132 98.1279H118.212L116.1 92.2799H115.052L112.94 98.1279H114.004ZM115.444 94.0239C115.5 93.8639 115.548 93.6879 115.572 93.5759C115.588 93.6959 115.644 93.8719 115.692 94.0239L116.364 95.9119H114.78L115.444 94.0239ZM122.741 98.1279H123.797L125.973 92.2799H124.909L123.645 95.6479C123.533 95.9439 123.413 96.3039 123.269 96.8159C123.141 96.3439 123.029 95.9999 122.901 95.6479L121.621 92.2799H120.533L122.741 98.1279ZM127.047 93.3839C127.367 93.3839 127.631 93.1199 127.631 92.7919C127.631 92.4639 127.367 92.2079 127.047 92.2079C126.711 92.2079 126.447 92.4639 126.447 92.7919C126.447 93.1199 126.711 93.3839 127.047 93.3839ZM126.559 98.1279H127.535V94.1759H126.559V98.1279ZM128.351 93.9119C128.351 94.8079 128.871 95.3759 129.863 95.5919L130.791 95.7999C131.271 95.9039 131.471 96.1359 131.471 96.5279C131.471 97.0159 131.039 97.3119 130.359 97.3119C129.703 97.3119 129.303 97.0159 129.295 96.5199H128.271C128.295 97.5679 129.111 98.2319 130.359 98.2319C131.647 98.2319 132.495 97.5279 132.495 96.4399C132.495 95.5679 132.007 95.0559 131.007 94.8399L130.087 94.6399C129.599 94.5279 129.375 94.2959 129.375 93.8799C129.375 93.3919 129.783 93.0879 130.415 93.0879C130.991 93.0879 131.351 93.3839 131.375 93.8879H132.399C132.367 92.8319 131.615 92.1759 130.431 92.1759C129.199 92.1759 128.351 92.8879 128.351 93.9119ZM133.381 95.9919C133.381 97.3679 134.277 98.2239 135.693 98.2239C137.117 98.2239 138.013 97.3599 138.013 95.9919V92.2799H136.989V95.9279C136.989 96.7599 136.525 97.2319 135.693 97.2319C134.861 97.2319 134.405 96.7679 134.405 95.9279V92.2799H133.381V95.9919ZM139.535 98.1279L140.007 96.7759H142.191L142.663 98.1279H143.743L141.631 92.2799H140.583L138.471 98.1279H139.535ZM140.975 94.0239C141.031 93.8639 141.079 93.6879 141.103 93.5759C141.119 93.6959 141.175 93.8719 141.223 94.0239L141.895 95.9119H140.311L140.975 94.0239ZM145.5 92.2799H144.476V98.1279H147.948V97.1839H145.5V92.2799ZM149.125 93.3839C149.445 93.3839 149.709 93.1199 149.709 92.7919C149.709 92.4639 149.445 92.2079 149.125 92.2079C148.789 92.2079 148.525 92.4639 148.525 92.7919C148.525 93.1199 148.789 93.3839 149.125 93.3839ZM148.637 98.1279H149.613V94.1759H148.637V98.1279ZM154.573 98.1279V97.1839H151.613L154.525 93.1919V92.2799H150.429V93.2239H153.253L150.365 97.1759V98.1279H154.573ZM155.972 98.1279L156.444 96.7759H158.628L159.1 98.1279H160.18L158.068 92.2799H157.02L154.908 98.1279H155.972ZM157.412 94.0239C157.468 93.8639 157.516 93.6879 157.54 93.5759C157.556 93.6959 157.612 93.8719 157.66 94.0239L158.332 95.9119H156.748L157.412 94.0239ZM159.878 93.2239H161.59V98.1279H162.614V93.2239H164.326V92.2799H159.878V93.2239ZM165.453 93.3839C165.773 93.3839 166.037 93.1199 166.037 92.7919C166.037 92.4639 165.773 92.2079 165.453 92.2079C165.117 92.2079 164.853 92.4639 164.853 92.7919C164.853 93.1199 165.117 93.3839 165.453 93.3839ZM164.965 98.1279H165.941V94.1759H164.965V98.1279ZM172.429 95.1999C172.429 93.4159 171.261 92.1759 169.589 92.1759C167.917 92.1759 166.757 93.4239 166.757 95.1999C166.757 96.9839 167.909 98.2239 169.581 98.2239C171.261 98.2239 172.429 96.9759 172.429 95.1999ZM171.349 95.1999C171.349 96.4319 170.661 97.2399 169.589 97.2399C168.517 97.2399 167.829 96.4479 167.829 95.1999C167.829 93.9519 168.517 93.1599 169.589 93.1599C170.661 93.1599 171.349 93.9519 171.349 95.1999ZM174.39 98.1279V93.9839L177.142 98.1279H178.15V92.2799H177.142V96.4239L174.398 92.2799H173.382V98.1279H174.39Z" fill="white"/>
</svg>
