<svg width="30" height="51" viewBox="0 0 30 51" fill="none" xmlns="http://www.w3.org/2000/svg">
<path d="M24.919 16.801L22.7686 14.4986V8.82517C22.7972 6.71842 22.109 4.67178 20.831 3.06317C19.553 1.45455 17.7715 0.392599 15.8156 0.0733941C14.6804 -0.0857825 13.5264 0.0146438 12.4306 0.367972C11.3347 0.721301 10.3223 1.31941 9.46075 2.12238C8.59922 2.92536 7.90842 3.91473 7.43444 5.0245C6.96047 6.13427 6.71422 7.33891 6.71213 8.55804V14.4986L4.56172 16.801C4.29161 17.0934 4.10844 17.4641 4.0351 17.8667C3.96177 18.2694 4.00153 18.6861 4.14941 19.0648C4.29729 19.4435 4.54672 19.7674 4.86654 19.996C5.18635 20.2246 5.56236 20.3477 5.94754 20.35H9.96165V20.7825C10.0175 22.0739 10.5518 23.2891 11.4475 24.1618C12.3432 25.0345 13.5273 25.4935 14.7404 25.4383C15.9534 25.4935 17.1375 25.0345 18.0332 24.1618C18.9289 23.2891 19.4633 22.0739 19.5191 20.7825V20.35H23.5332C23.9184 20.3477 24.2944 20.2246 24.6142 19.996C24.934 19.7674 25.1834 19.4435 25.3313 19.0648C25.4792 18.6861 25.5189 18.2694 25.4456 17.8667C25.3723 17.4641 25.1891 17.0934 24.919 16.801ZM17.1297 20.7825C17.0635 21.3944 16.778 21.9555 16.3329 22.3488C15.8878 22.7422 15.3174 22.9375 14.7404 22.8942C14.1633 22.9375 13.5929 22.7422 13.1478 22.3488C12.7027 21.9555 12.4173 21.3944 12.351 20.7825V20.35H17.1297V20.7825Z" fill="#040E47"/>
</svg>
