<svg xmlns="http://www.w3.org/2000/svg" xmlns:xlink="http://www.w3.org/1999/xlink" viewBox="0,0,256,256" width="26px" height="26px" fill-rule="nonzero"><g fill="#040e47" fill-rule="nonzero" stroke="none" stroke-width="1" stroke-linecap="butt" stroke-linejoin="miter" stroke-miterlimit="10" stroke-dasharray="" stroke-dashoffset="0" font-family="none" font-weight="none" font-size="none" text-anchor="none" style="mix-blend-mode: normal"><g transform="scale(9.84615,9.84615)"><path d="M13,0c-2.67969,0 -4.80469,0.83203 -6.15625,2.34375c-1.35156,1.51172 -1.84375,3.49609 -1.84375,5.5625v1.09375h3v-1.09375c0,-1.59375 0.35938,-2.77734 1.0625,-3.5625c0.70313,-0.78516 1.83594,-1.34375 3.9375,-1.34375c2.10547,0 3.23828,0.53516 3.9375,1.3125c0.69922,0.77734 1.0625,1.98438 1.0625,3.59375v1.09375h3v-1.09375c0,-2.07812 -0.48828,-4.08594 -1.84375,-5.59375c-1.35547,-1.50781 -3.48047,-2.3125 -6.15625,-2.3125zM5,10c-1.65625,0 -3,1.34375 -3,3v10c0,1.65625 1.34375,3 3,3h16c1.65625,0 3,-1.34375 3,-3v-10c0,-1.65625 -1.34375,-3 -3,-3zM7,16c1.10547,0 2,0.89453 2,2c0,1.10547 -0.89453,2 -2,2c-1.10547,0 -2,-0.89453 -2,-2c0,-1.10547 0.89453,-2 2,-2zM13,16c1.10547,0 2,0.89453 2,2c0,1.10547 -0.89453,2 -2,2c-1.10547,0 -2,-0.89453 -2,-2c0,-1.10547 0.89453,-2 2,-2zM19,16c1.10547,0 2,0.89453 2,2c0,1.10547 -0.89453,2 -2,2c-1.10547,0 -2,-0.89453 -2,-2c0,-1.10547 0.89453,-2 2,-2z"></path></g></g></svg>