<svg width="72" height="66" viewBox="0 0 72 66" fill="none" xmlns="http://www.w3.org/2000/svg">
<path d="M59.85 57.5463C53.4 57.5463 47.113 56.2548 40.989 53.6719C34.863 51.0889 29.438 47.6449 24.714 43.34C19.988 39.035 16.188 34.1065 13.314 28.5545C10.438 23.0042 9 17.3063 9 11.4606V10.0331C9 9.53468 9.05 9.05887 9.15 8.60571H26.7L29.475 22.2683L20.925 30.0852C23.025 33.3479 25.663 36.4067 28.839 39.2616C32.013 42.1164 35.5 44.5861 39.3 46.6706L48 38.7858L63 41.5047V57.4104C62.5 57.4557 61.975 57.4901 61.425 57.5137C60.875 57.5355 60.35 57.5463 59.85 57.5463Z" fill="#040E47"/>
</svg>
