<svg width="49" height="31" viewBox="0 0 49 31" fill="none" xmlns="http://www.w3.org/2000/svg">
<path d="M24.6562 0H24.9288C27.4461 0.0081404 40.2014 0.0895448 43.6406 0.909011C44.6803 1.15911 45.6277 1.64659 46.3882 2.32275C47.1486 2.9989 47.6955 3.84005 47.9741 4.76213C48.2834 5.79325 48.5008 7.15812 48.6478 8.56641L48.6784 8.84861L48.7458 9.55411L48.7703 9.83631C48.9694 12.3164 48.9939 14.6391 48.9969 15.1466V15.3501C48.9939 15.8765 48.9663 18.3566 48.7458 20.9398L48.7213 21.2247L48.6937 21.5069C48.5406 23.059 48.314 24.6003 47.9741 25.7345C47.6963 26.657 47.1498 27.4985 46.3892 28.1748C45.6286 28.851 44.6807 29.3383 43.6406 29.5876C40.0881 30.4342 26.5856 30.4939 24.7144 30.4966H24.2795C23.3332 30.4966 19.4193 30.4804 15.3156 30.3555L14.7949 30.3393L14.5285 30.3284L14.0048 30.3094L13.4811 30.2904C10.0817 30.1574 6.84469 29.9431 5.35325 29.5849C4.3135 29.3358 3.36589 28.849 2.60534 28.1732C1.8448 27.4974 1.29803 26.6565 1.01981 25.7345C0.679875 24.603 0.45325 23.059 0.300125 21.5069L0.275625 21.222L0.251125 20.9398C0.0999833 19.1012 0.0162308 17.2587 0 15.4152L0 15.0814C0.006125 14.498 0.030625 12.4819 0.196 10.2569L0.217438 9.97741L0.226625 9.83631L0.251125 9.55411L0.3185 8.84861L0.349125 8.56641C0.496125 7.15812 0.713562 5.79053 1.02287 4.76213C1.30062 3.83968 1.84718 2.99814 2.60776 2.32186C3.36833 1.64559 4.31619 1.15836 5.35631 0.909011C6.84775 0.556261 10.0848 0.339183 13.4842 0.20351L14.0048 0.184516L14.5316 0.168235L14.7949 0.160095L15.3186 0.141101C18.2332 0.0579996 21.149 0.0118656 24.0651 0.00271359H24.6562V0ZM19.6 8.71022V21.7837L32.3308 15.2497L19.6 8.71022Z" fill="#FF0000"/>
</svg>
