<svg width="24" height="24" viewBox="0 0 24 24" fill="none" xmlns="http://www.w3.org/2000/svg">
<path d="M16.0327 10.046C16.0327 8.28606 15.4227 6.78059 14.2026 5.52959C12.9825 4.27859 11.5142 3.6531 9.7978 3.6531C8.0813 3.6531 6.613 4.27859 5.39294 5.52959C4.17286 6.78059 3.56282 8.28606 3.56282 10.046C3.56282 11.806 4.17286 13.3114 5.39294 14.5624C6.613 15.8134 8.0813 16.4389 9.7978 16.4389C11.5142 16.4389 12.9825 15.8134 14.2026 14.5624C15.4227 13.3114 16.0327 11.806 16.0327 10.046ZM23.1583 21.9186C23.1583 22.4133 22.982 22.8414 22.6295 23.2029C22.2769 23.5644 21.8594 23.7451 21.3769 23.7451C20.8759 23.7451 20.4584 23.5644 20.1244 23.2029L15.3507 18.3226C13.69 19.5022 11.839 20.092 9.7978 20.092C8.471 20.092 7.2022 19.828 5.99138 19.3001C4.78058 18.7721 3.73679 18.0586 2.86 17.1596C1.98321 16.2606 1.28735 15.1903 0.77241 13.9488C0.25747 12.7074 0 11.4064 0 10.046C0 8.68562 0.25747 7.38468 0.77241 6.1432C1.28735 4.90171 1.98321 3.83147 2.86 2.93247C3.73679 2.03346 4.78058 1.31997 5.99138 0.79198C7.2022 0.263993 8.471 0 9.7978 0C11.1245 0 12.3933 0.263993 13.6041 0.79198C14.8149 1.31997 15.8587 2.03346 16.7355 2.93247C17.6123 3.83147 18.3082 4.90171 18.8231 6.1432C19.338 7.38468 19.5955 8.68562 19.5955 10.046C19.5955 12.1389 19.0203 14.0368 17.8698 15.7397L22.6434 20.6343C22.9867 20.9863 23.1583 21.4144 23.1583 21.9186Z" fill="#040E47"/>
</svg>