<svg width="18" height="19" viewBox="0 0 18 19" fill="none" xmlns="http://www.w3.org/2000/svg">
<path d="M8.99985 6.0166C8.30933 6.0166 7.63433 6.2209 7.06018 6.60365C6.48604 6.9864 6.03855 7.53042 5.77431 8.16692C5.51006 8.80342 5.44092 9.5038 5.57563 10.1795C5.71034 10.8552 6.04286 11.4759 6.53112 11.963C7.01939 12.4502 7.64148 12.7819 8.31873 12.9163C8.99597 13.0507 9.69796 12.9818 10.3359 12.7181C10.9739 12.4545 11.5191 12.008 11.9028 11.4352C12.2864 10.8623 12.4911 10.1889 12.4911 9.49993C12.4901 8.57642 12.1219 7.69103 11.4674 7.038C10.8129 6.38498 9.92547 6.01765 8.99985 6.0166ZM8.99985 11.7166C8.56043 11.7166 8.13088 11.5866 7.76552 11.343C7.40015 11.0995 7.11539 10.7533 6.94723 10.3482C6.77907 9.94317 6.73507 9.49747 6.8208 9.06748C6.90653 8.63749 7.11813 8.24252 7.42884 7.93251C7.73956 7.62251 8.13543 7.41139 8.56641 7.32586C8.99738 7.24033 9.4441 7.28423 9.85007 7.452C10.256 7.61978 10.603 7.90389 10.8472 8.26842C11.0913 8.63295 11.2216 9.06152 11.2216 9.49993C11.2209 10.0876 10.9866 10.6511 10.5701 11.0666C10.1536 11.4822 9.58888 11.7159 8.99985 11.7166Z" fill="#040E47"/>
<path d="M17.7103 12.1251L16.4498 11.0899C16.6733 10.0417 16.6733 8.95831 16.4498 7.9101L17.7103 6.87487C17.8556 6.75604 17.9539 6.58945 17.9873 6.40494C18.0208 6.22043 17.9874 6.03006 17.893 5.86791L16.5992 3.63213C16.5056 3.46945 16.3571 3.34533 16.1801 3.28201C16.0032 3.21868 15.8095 3.2203 15.6336 3.28657L14.1038 3.85843C13.3068 3.14002 12.3666 2.59785 11.3448 2.26749L11.0764 0.661559C11.046 0.476481 10.9505 0.30825 10.8071 0.187022C10.6637 0.0657936 10.4817 -0.00050733 10.2937 2.92336e-06H7.7061C7.51814 -0.000500837 7.33614 0.0657974 7.19271 0.187016C7.04929 0.308235 6.95382 0.476452 6.92342 0.661519L6.65514 2.26749C5.63338 2.59784 4.69318 3.14001 3.89622 3.85843L2.3662 3.28649C2.19037 3.22026 1.99664 3.21867 1.81974 3.282C1.64283 3.34533 1.49431 3.46944 1.40078 3.63209L0.106975 5.86803C0.012615 6.03019 -0.020801 6.22057 0.0127117 6.40507C0.0462244 6.58957 0.144477 6.75614 0.289871 6.87495L1.55019 7.9101C1.32675 8.95831 1.32675 10.0417 1.55019 11.0899L0.289752 12.1251C0.144381 12.244 0.0461554 12.4105 0.0126652 12.5951C-0.0208251 12.7796 0.0126069 12.9699 0.106975 13.1321L1.40082 15.3679C1.49436 15.5305 1.6429 15.6547 1.81983 15.718C1.99676 15.7813 2.19051 15.7797 2.36636 15.7134L3.89626 15.1416C4.69322 15.86 5.63342 16.4022 6.65518 16.7325L6.92346 18.3384C6.95385 18.5235 7.04931 18.6917 7.19273 18.813C7.33614 18.9342 7.51814 19.0005 7.7061 19H10.2937C10.4817 19.0005 10.6637 18.9342 10.8071 18.813C10.9505 18.6918 11.046 18.5236 11.0764 18.3385L11.3447 16.7325C12.3665 16.4021 13.3067 15.86 14.1036 15.1416L15.6336 15.7135C15.8095 15.7797 16.0032 15.7813 16.1801 15.718C16.357 15.6547 16.5055 15.5306 16.599 15.3679L17.8928 13.132C17.9872 12.9699 18.0206 12.7795 17.9872 12.595C17.9537 12.4106 17.8556 12.244 17.7103 12.1251ZM15.7013 14.3861L13.7927 13.6727L13.5036 13.963C12.7084 14.7627 11.7138 15.3362 10.6223 15.6244L10.2256 15.7288L9.89055 17.7333H8.10959L7.77466 15.7288L7.37792 15.6244C6.28645 15.3362 5.29181 14.7627 4.49661 13.963L4.20758 13.6727L2.2986 14.3861L1.40828 12.8472L2.98051 11.5559L2.87339 11.1611C2.57881 10.0732 2.57881 8.92679 2.87339 7.83889L2.98051 7.44416L1.40828 6.15279L2.2988 4.61387L4.20747 5.32732L4.49649 5.03702C5.29169 4.23734 6.28633 3.66381 7.3778 3.37559L7.77454 3.27125L8.10943 1.26667H9.89055L10.2255 3.27125L10.6222 3.37559C11.7137 3.66381 12.7083 4.23734 13.5035 5.03702L13.7925 5.32732L15.7012 4.61387L16.5918 6.15276L15.0195 7.44416L15.1267 7.83889C15.4212 8.92679 15.4212 10.0732 15.1267 11.1611L15.0195 11.5559L16.5918 12.8472L15.7013 14.3861Z" fill="#040E47"/>
</svg>
