<svg width="16" height="21" viewBox="0 0 16 21" fill="none" xmlns="http://www.w3.org/2000/svg">
<path d="M13.2383 20.9092C12.5174 20.9092 11.9047 20.6122 11.4001 20.0183C10.8955 19.4243 10.6432 18.7031 10.6432 17.8546C10.6432 17.7358 10.6504 17.6126 10.6648 17.485C10.6792 17.3574 10.7008 17.243 10.7297 17.1419L4.63115 12.9674C4.38605 13.2219 4.11212 13.4215 3.80936 13.566C3.50659 13.7106 3.18941 13.7826 2.85781 13.7819C2.13695 13.7819 1.52421 13.4849 1.0196 12.891C0.514999 12.297 0.262695 11.5758 0.262695 10.7274C0.262695 9.87887 0.514999 9.15765 1.0196 8.56371C1.52421 7.96977 2.13695 7.6728 2.85781 7.6728C3.18941 7.6728 3.50659 7.7451 3.80936 7.88968C4.11212 8.03426 4.38605 8.23348 4.63115 8.48735L10.7297 4.3128C10.7008 4.21099 10.6792 4.09661 10.6648 3.96968C10.6504 3.84274 10.6432 3.71954 10.6432 3.60008C10.6432 2.75159 10.8955 2.03038 11.4001 1.43644C11.9047 0.842502 12.5174 0.545532 13.2383 0.545532C13.9592 0.545532 14.5719 0.842502 15.0765 1.43644C15.5811 2.03038 15.8334 2.75159 15.8334 3.60008C15.8334 4.44856 15.5811 5.16977 15.0765 5.76371C14.5719 6.35765 13.9592 6.65462 13.2383 6.65462C12.9067 6.65462 12.5895 6.58267 12.2867 6.43877C11.984 6.29487 11.7101 6.0953 11.465 5.84008L5.36643 10.0146C5.39526 10.1164 5.41689 10.2312 5.43131 10.3588C5.44572 10.4864 5.45293 10.6092 5.45293 10.7274C5.45293 10.8461 5.44572 10.9693 5.43131 11.0969C5.41689 11.2246 5.39526 11.3389 5.36643 11.4401L11.465 15.6146C11.7101 15.3601 11.984 15.1609 12.2867 15.0169C12.5895 14.873 12.9067 14.8008 13.2383 14.8001C13.9592 14.8001 14.5719 15.097 15.0765 15.691C15.5811 16.2849 15.8334 17.0061 15.8334 17.8546C15.8334 18.7031 15.5811 19.4243 15.0765 20.0183C14.5719 20.6122 13.9592 20.9092 13.2383 20.9092Z" fill="white"/>
</svg>
