<svg width="26" height="26" viewBox="0 0 26 26" fill="none" xmlns="http://www.w3.org/2000/svg">
<path d="M12.6819 3.25C7.4289 3.25 3.17047 7.61523 3.17047 13C3.17047 18.3848 7.4289 22.75 12.6819 22.75C17.935 22.75 22.1934 18.3848 22.1934 13C22.1934 7.61523 17.935 3.25 12.6819 3.25Z" stroke="#040E47" stroke-width="1.5"/>
<path d="M12.6819 13C14.433 13 15.8524 11.545 15.8524 9.75C15.8524 7.95508 14.433 6.5 12.6819 6.5C10.9308 6.5 9.51141 7.95508 9.51141 9.75C9.51141 11.545 10.9308 13 12.6819 13Z" fill="#009444" stroke="black" stroke-width="1.5"/>
<path d="M6.34094 20.2673C6.34094 18.5126 7.57925 16.25 9.51143 16.25H15.8524C17.7846 16.25 19.0229 18.5126 19.0229 20.2673" fill="#040E47"/>
<path d="M6.34094 20.2673C6.34094 18.5126 7.57925 16.25 9.51143 16.25H15.8524C17.7846 16.25 19.0229 18.5126 19.0229 20.2673" stroke="#040E47" stroke-width="1.5"/>
</svg>
